<svg aria-hidden="true" style="position: absolute; width: 0; height: 0; overflow: hidden;" version="1.1" xmlns="http://www.w3.org/2000/svg" xmlns:xlink="http://www.w3.org/1999/xlink">
<defs>
<symbol id="icon-menu" viewBox="0 0 32 32">
<path fill="#fff" style="fill: var(--color1, #fff)" d="M6.4 11.733v-2.133h19.2v2.133h-19.2zM6.4 17.067h19.2v-2.133h-19.2v2.133zM6.4 22.4h19.2v-2.133h-19.2v2.133z"></path>
</symbol>
<symbol id="icon-Logo" viewBox="0 0 39 32">
<path d="M22.371 9.64l-0.749-0.571c-0.117-0.095-0.267-0.139-0.416-0.124s-0.288 0.088-0.384 0.204l-10.36 11.897 0.16 0.177 2.566-2.366c-0.085-0.034-0.156-0.098-0.2-0.179s-0.058-0.175-0.039-0.265c0.018-0.090 0.068-0.171 0.14-0.229s0.162-0.088 0.254-0.087c0.083 0 0.164 0.027 0.231 0.076s0.116 0.119 0.141 0.198l3.383-3.137c0.052-0.042 0.116-0.064 0.183-0.064s0.131 0.023 0.183 0.064l0.171 0.126c0.058 0.042 0.129 0.060 0.2 0.052s0.136-0.043 0.183-0.097l4.423-4.96c0.047-0.049 0.083-0.108 0.105-0.172s0.030-0.133 0.024-0.2c-0.006-0.068-0.027-0.133-0.062-0.192s-0.080-0.11-0.136-0.149z"></path>
<path d="M27.24 12.989c-2.267 1.613-4.807 2.804-7.497 3.514-2.67 0.679-5.402 1.085-8.154 1.211 0.055 0.406 0.155 0.804 0.297 1.189 1.554 1.406 13.257-0.994 15.543-3.771 0.486-0.577-0.189-2.143-0.189-2.143zM13.343 18.857c-0.077 0-0.152-0.023-0.216-0.066s-0.114-0.103-0.143-0.174-0.037-0.149-0.022-0.224c0.015-0.075 0.052-0.145 0.106-0.199s0.124-0.091 0.199-0.106c0.075-0.015 0.153-0.007 0.225 0.022s0.132 0.079 0.174 0.143 0.066 0.139 0.066 0.216c0.001 0.051-0.009 0.102-0.028 0.15s-0.048 0.091-0.084 0.127c-0.036 0.036-0.079 0.065-0.127 0.084s-0.098 0.029-0.15 0.028z"></path>
<path d="M2.286 12.166l0.091-0.394 1.486 0.337c0.123 0.226 0.198 0.475 0.223 0.731 0.028 0.271 0.011 0.546-0.051 0.811-0.074 0.369-0.243 0.712-0.491 0.994-0.236 0.267-0.54 0.464-0.88 0.571-0.35 0.108-0.723 0.122-1.080 0.040-0.358-0.077-0.688-0.251-0.954-0.503-0.262-0.242-0.45-0.553-0.543-0.897-0.103-0.374-0.103-0.769 0-1.143 0.061-0.28 0.172-0.547 0.326-0.789 0.146-0.22 0.342-0.402 0.571-0.531l0.206 0.314c-0.197 0.121-0.366 0.282-0.496 0.473s-0.218 0.408-0.258 0.635c-0.071 0.296-0.065 0.604 0.017 0.897 0.077 0.278 0.229 0.529 0.44 0.726 0.217 0.21 0.488 0.354 0.783 0.417 0.286 0.080 0.588 0.080 0.874 0 0.274-0.090 0.52-0.25 0.714-0.463 0.2-0.23 0.337-0.507 0.4-0.806 0.094-0.362 0.070-0.744-0.069-1.091l-1.309-0.331z"></path>
<path d="M5.52 8.571l-1.331 1.777 0.571 1.023-0.263 0.354-2.114-3.857 0.246-0.337 4.303 0.926-0.269 0.354-1.143-0.24zM5.143 8.48l-2.286-0.514 1.143 2.051 1.143-1.537z"></path>
<path d="M5.143 4.886l0.343-0.257 2.177 2.914 1.794-1.343 0.217 0.291-2.131 1.594-2.4-3.2z"></path>
<path d="M8.743 2.503l0.383-0.171 1.509 3.303 2.040-0.926 0.149 0.331-2.423 1.103-1.657-3.64z"></path>
<path d="M16.274 3.817l0.086 0.36-2.754 0.646-0.914-3.897 2.674-0.623 0.080 0.354-2.286 0.531 0.326 1.383 2.011-0.474 0.086 0.354-2.017 0.469 0.343 1.446 2.366-0.549z"></path>
<path d="M20.2 3.96l-0.954-1.257c-0.107 0.006-0.213 0.006-0.32 0l-1.074 0.034 0.040 1.269h-0.423l-0.131-4 1.52-0.006c0.43-0.040 0.86 0.076 1.211 0.326 0.148 0.119 0.268 0.271 0.349 0.443s0.122 0.361 0.12 0.551c0.017 0.282-0.057 0.563-0.211 0.8-0.164 0.228-0.396 0.398-0.663 0.486l1 1.337-0.463 0.017zM19.8 2.080c0.103-0.094 0.182-0.211 0.233-0.34s0.070-0.269 0.058-0.408c0.003-0.139-0.026-0.278-0.084-0.405s-0.145-0.238-0.253-0.327c-0.263-0.179-0.58-0.261-0.897-0.234l-1.086 0.040 0.069 2 1.063-0.034c0.324 0.012 0.642-0.091 0.897-0.291z"></path>
<path d="M23.223 2.897l-0.206 1.366-0.417-0.063 0.211-1.343-1.183-2.857 0.446 0.069 1.011 2.434 1.714-2.017 0.4 0.086-1.977 2.326z"></path>
<path d="M28.874 2.657l0.497 0.646-0.217 0.171-0.497-0.663-0.314 0.749-0.24-0.103 0.32-0.749-0.823 0.109v-0.274l0.811-0.091-0.503-0.646 0.223-0.171 0.44 0.651 0.309-0.754 0.246 0.103-0.291 0.766 0.823-0.114v0.28l-0.783 0.091z"></path>
<path d="M30.783 7.263c-0.135-0.208-0.219-0.445-0.246-0.691l0.337-0.149c0.025 0.226 0.099 0.445 0.217 0.64 0.128 0.219 0.294 0.412 0.491 0.571 0.204 0.195 0.464 0.321 0.743 0.36 0.101 0.009 0.203-0.006 0.296-0.045s0.176-0.1 0.241-0.178c0.047-0.052 0.084-0.114 0.106-0.181s0.031-0.138 0.025-0.208c-0.019-0.139-0.066-0.273-0.137-0.394-0.107-0.175-0.224-0.345-0.349-0.509-0.152-0.199-0.29-0.409-0.411-0.629-0.093-0.164-0.144-0.349-0.149-0.537-0-0.212 0.079-0.416 0.223-0.571 0.124-0.151 0.289-0.264 0.474-0.326 0.207-0.060 0.427-0.060 0.634 0 0.267 0.087 0.514 0.227 0.726 0.411 0.176 0.146 0.332 0.315 0.463 0.503 0.121 0.174 0.212 0.367 0.269 0.571l-0.326 0.171c-0.057-0.19-0.142-0.372-0.251-0.537-0.109-0.148-0.238-0.281-0.383-0.394-0.201-0.194-0.46-0.317-0.737-0.349-0.102-0.009-0.204 0.008-0.298 0.049s-0.176 0.104-0.239 0.185c-0.049 0.051-0.086 0.113-0.108 0.18s-0.031 0.138-0.023 0.209c0.013 0.144 0.060 0.283 0.137 0.406 0.080 0.131 0.194 0.303 0.349 0.509 0.153 0.195 0.291 0.401 0.411 0.617 0.095 0.164 0.148 0.348 0.154 0.537 0 0.212-0.079 0.416-0.223 0.571-0.125 0.153-0.292 0.266-0.48 0.326-0.207 0.062-0.428 0.062-0.634 0-0.269-0.087-0.517-0.227-0.731-0.411-0.231-0.201-0.424-0.441-0.571-0.709z"></path>
<path d="M36.531 8.097l-0.806-1.143 0.297-0.211 1.857 2.651-0.297 0.211-0.806-1.143-2.983 2.086-0.24-0.349 2.977-2.103z"></path>
<path d="M35.251 12.794c0.102-0.345 0.3-0.655 0.571-0.891 0.265-0.238 0.589-0.401 0.937-0.474 0.355-0.082 0.726-0.068 1.074 0.040 0.336 0.111 0.638 0.308 0.874 0.571 0.246 0.283 0.414 0.626 0.486 0.994 0.095 0.361 0.095 0.741 0 1.103-0.105 0.344-0.303 0.652-0.571 0.891-0.273 0.244-0.604 0.413-0.961 0.491s-0.729 0.062-1.079-0.046c-0.339-0.106-0.642-0.304-0.874-0.571-0.245-0.282-0.412-0.622-0.486-0.989-0.087-0.37-0.078-0.755 0.029-1.12zM36 14.611c0.191 0.217 0.438 0.377 0.714 0.463 0.285 0.083 0.586 0.092 0.875 0.028s0.558-0.199 0.782-0.394c0.211-0.194 0.367-0.441 0.451-0.714 0.080-0.289 0.087-0.593 0.023-0.886s-0.2-0.565-0.394-0.794c-0.199-0.218-0.454-0.378-0.737-0.463-0.288-0.077-0.592-0.077-0.88 0-0.291 0.056-0.56 0.192-0.777 0.394-0.213 0.195-0.369 0.444-0.451 0.72-0.078 0.29-0.078 0.596 0 0.886 0.063 0.284 0.199 0.546 0.394 0.76z"></path>
<path d="M34.817 19.428l1.48-0.571c0-0.103 0.034-0.206 0.063-0.314l0.28-1.034-1.211-0.314 0.109-0.406 3.863 1.034-0.389 1.446c-0.088 0.422-0.323 0.799-0.663 1.063-0.156 0.109-0.336 0.18-0.524 0.207s-0.381 0.012-0.562-0.047c-0.276-0.060-0.523-0.212-0.7-0.431s-0.275-0.492-0.277-0.775l-1.577 0.571 0.109-0.429zM36.731 19.588c0.067 0.121 0.158 0.228 0.267 0.314s0.235 0.148 0.368 0.184c0.134 0.036 0.274 0.044 0.411 0.024s0.269-0.067 0.388-0.139c0.252-0.203 0.424-0.488 0.486-0.806l0.274-1.029-1.937-0.52-0.274 1.029c-0.105 0.306-0.099 0.64 0.017 0.943z"></path>
<path d="M32.766 23.109l-0.291-0.223 1.714-2.257 3.189 2.417-1.657 2.189-0.291-0.223 1.4-1.846-1.143-0.863-1.251 1.651-0.286-0.217 1.28-1.651-1.183-0.897-1.48 1.92z"></path>
<path d="M31.429 27.663l-0.817 0.046v-0.274l0.817-0.006-0.44-0.68 0.223-0.143 0.434 0.686 0.354-0.766 0.246 0.131-0.389 0.72 0.817-0.046v0.28h-0.829l0.44 0.68-0.223 0.143-0.434-0.686-0.377 0.743-0.24-0.137 0.417-0.691z"></path>
<path d="M24 27.206l0.691 0.383c0.116-0.223 0.278-0.418 0.475-0.574s0.425-0.268 0.668-0.329c0.227-0.071 0.466-0.096 0.703-0.074 0.206 0.016 0.403 0.087 0.571 0.206 0.152 0.115 0.264 0.275 0.32 0.457 0.069 0.226 0.057 0.468-0.034 0.686-0.143 0.296-0.337 0.564-0.571 0.794 0.188 0.101 0.363 0.226 0.52 0.371 0.108 0.111 0.188 0.246 0.234 0.394 0.029 0.115 0.031 0.236 0.005 0.352s-0.078 0.224-0.154 0.317c-0.153 0.22-0.38 0.376-0.64 0.44-0.228 0.087-0.48 0.087-0.709 0-0.102-0.044-0.191-0.11-0.263-0.194s-0.122-0.184-0.149-0.291c-0.060-0.189-0.046-0.393 0.040-0.571 0.131-0.26 0.303-0.497 0.509-0.703l-1.377-0.766c-0.053 0.269-0.064 0.545-0.034 0.817h-0.349c-0.023-0.336 0.015-0.673 0.114-0.994l-0.72-0.4 0.149-0.32zM24.994 27.777l1.514 0.84c0.198-0.189 0.363-0.412 0.486-0.657 0.063-0.166 0.063-0.349 0-0.514-0.026-0.099-0.076-0.19-0.146-0.265s-0.157-0.131-0.254-0.164c-0.237-0.080-0.494-0.080-0.731 0-0.194 0.051-0.374 0.144-0.528 0.273s-0.278 0.289-0.363 0.47l0.023 0.017zM27.143 30.063c0.037-0.063 0.061-0.134 0.069-0.206s0-0.147-0.023-0.216c-0.035-0.113-0.098-0.215-0.183-0.297-0.145-0.123-0.305-0.228-0.474-0.314-0.173 0.171-0.325 0.363-0.451 0.571-0.069 0.13-0.085 0.281-0.046 0.423 0.018 0.065 0.050 0.126 0.093 0.178s0.097 0.095 0.158 0.124c0.145 0.055 0.306 0.055 0.451 0 0.155-0.041 0.291-0.137 0.383-0.269l0.023 0.006z"></path>
<path d="M17.034 31.611l0.080-4h0.406l-0.063 3.2 1.623-2.663h0.2l1.52 2.709 0.057-3.183h0.406l-0.074 4h-0.349l-1.68-2.989-1.777 2.931-0.349-0.006z"></path>
<path d="M15.046 27.429c0.261 0.249 0.448 0.566 0.54 0.915s0.085 0.717-0.020 1.062c-0.094 0.354-0.281 0.675-0.543 0.931-0.254 0.25-0.573 0.424-0.92 0.503-0.366 0.083-0.748 0.071-1.109-0.034-0.359-0.088-0.69-0.267-0.96-0.52-0.257-0.246-0.441-0.558-0.531-0.903-0.088-0.356-0.081-0.729 0.019-1.082s0.291-0.673 0.553-0.93c0.25-0.249 0.561-0.427 0.903-0.514 0.365-0.082 0.744-0.071 1.103 0.034 0.363 0.092 0.696 0.277 0.966 0.537zM13.097 27.229c-0.28 0.065-0.535 0.208-0.737 0.411-0.21 0.21-0.361 0.472-0.434 0.76-0.080 0.286-0.080 0.588 0 0.874 0.067 0.278 0.212 0.532 0.417 0.731 0.215 0.21 0.481 0.362 0.771 0.44 0.291 0.074 0.595 0.074 0.886 0 0.28-0.069 0.536-0.211 0.743-0.411 0.209-0.21 0.359-0.473 0.434-0.76 0.080-0.288 0.080-0.592 0-0.88-0.073-0.277-0.219-0.53-0.423-0.731-0.216-0.211-0.484-0.36-0.777-0.434-0.288-0.080-0.592-0.080-0.88 0z"></path>
<path d="M8.771 24.571l0.154 1.571c0.098 0.042 0.193 0.090 0.286 0.143l0.931 0.537 0.629-1.109 0.371 0.211-2 3.446-1.303-0.749c-0.385-0.193-0.689-0.517-0.857-0.914-0.062-0.179-0.083-0.369-0.061-0.557s0.086-0.369 0.187-0.529c0.133-0.25 0.343-0.451 0.6-0.571 0.261-0.108 0.549-0.13 0.823-0.063l-0.166-1.68 0.406 0.263zM8.12 26.377c-0.134 0.034-0.26 0.094-0.371 0.178s-0.203 0.188-0.271 0.308c-0.069 0.12-0.113 0.253-0.129 0.39s-0.005 0.277 0.034 0.41c0.134 0.296 0.366 0.536 0.657 0.68l0.92 0.531 1-1.714-0.92-0.531c-0.264-0.198-0.59-0.297-0.92-0.28v0.029z"></path>
<path d="M5.389 21.892l0.257-0.257 1.971 2.029-2.857 2.789-1.903-1.966 0.263-0.257 1.617 1.663 0.977-0.989-1.417-1.474 0.274-0.263 1.446 1.486 1.063-1.034-1.691-1.726z"></path>
<path d="M1.143 19.646l0.137-0.789 0.269 0.040-0.154 0.811 0.76-0.28 0.091 0.251-0.771 0.263 0.634 0.537-0.183 0.206-0.611-0.571-0.143 0.811-0.274-0.051 0.16-0.811-0.766 0.274-0.086-0.223 0.766-0.269-0.634-0.531 0.189-0.206 0.617 0.537z"></path>
</symbol>
<symbol id="icon-close" viewBox="0 0 40 40"  xmlns="http://www.w3.org/2000/svg">
<path d="M29.6667 12.88L27.7867 11L20.3333 18.4533L12.88 11L11 12.88L18.4533 20.3333L11 27.7867L12.88 29.6667L20.3333 22.2133L27.7867 29.6667L29.6667 27.7867L22.2133 20.3333L29.6667 12.88Z" />
</symbol>
<symbol id="instagram" width="20" height="20" viewBox="0 0 20 20"  xmlns="http://www.w3.org/2000/svg">
<g clip-path="url(#clip0_59_58)">
<path d="M19.9804 5.88005C19.9336 4.81738 19.7617 4.0868 19.5156 3.45374C19.2616 2.78176 18.8709 2.18014 18.359 1.68002C17.8589 1.1721 17.2533 0.777435 16.5891 0.527447C15.9524 0.281274 15.2256 0.109427 14.163 0.0625732C13.0924 0.0117516 12.7525 0 10.0371 0C7.32173 0 6.98185 0.0117516 5.91521 0.0586052C4.85253 0.105459 4.12195 0.277459 3.48904 0.523479C2.81692 0.777435 2.2153 1.16814 1.71517 1.68002C1.20726 2.18014 0.812743 2.78573 0.562603 3.44992C0.31643 4.0868 0.144583 4.81341 0.0977294 5.87609C0.0469078 6.9467 0.0351562 7.28658 0.0351562 10.002C0.0351562 12.7173 0.0469078 13.0572 0.0937614 14.1239C0.140615 15.1865 0.312615 15.9171 0.558787 16.5502C0.812743 17.2221 1.20726 17.8238 1.71517 18.3239C2.2153 18.8318 2.82088 19.2265 3.48508 19.4765C4.12195 19.7226 4.84856 19.8945 5.91139 19.9413C6.97788 19.9883 7.31791 19.9999 10.0333 19.9999C12.7487 19.9999 13.0885 19.9883 14.1552 19.9413C15.2179 19.8945 15.9484 19.7226 16.5813 19.4765C17.9254 18.9568 18.9881 17.8941 19.5078 16.5502C19.7538 15.9133 19.9258 15.1865 19.9727 14.1239C20.0195 13.0572 20.0313 12.7173 20.0313 10.002C20.0313 7.28658 20.0273 6.9467 19.9804 5.88005ZM18.1794 14.0457C18.1364 15.0225 17.9723 15.5499 17.8356 15.9015C17.4995 16.7728 16.808 17.4643 15.9367 17.8004C15.5851 17.9372 15.0538 18.1012 14.0809 18.1441C13.026 18.1911 12.7096 18.2027 10.0411 18.2027C7.37255 18.2027 7.05221 18.1911 6.00113 18.1441C5.02438 18.1012 4.49693 17.9372 4.1453 17.8004C3.71171 17.6402 3.31704 17.3862 2.9967 17.0541C2.6646 16.7298 2.41065 16.3391 2.2504 15.9055C2.11365 15.5539 1.94959 15.0225 1.90671 14.0497C1.8597 12.9948 1.8481 12.6783 1.8481 10.0097C1.8481 7.34122 1.8597 7.02087 1.90671 5.96995C1.94959 4.99319 2.11365 4.46575 2.2504 4.11412C2.41065 3.68038 2.6646 3.28586 3.00067 2.96536C3.32483 2.63327 3.71553 2.37931 4.14927 2.21921C4.5009 2.08247 5.03231 1.9184 6.0051 1.87537C7.05999 1.82851 7.37652 1.81676 10.0449 1.81676C12.7174 1.81676 13.0337 1.82851 14.0848 1.87537C15.0616 1.9184 15.589 2.08247 15.9407 2.21921C16.3742 2.37931 16.7689 2.63327 17.0893 2.96536C17.4213 3.28967 17.6753 3.68038 17.8356 4.11412C17.9723 4.46575 18.1364 4.99701 18.1794 5.96995C18.2263 7.02484 18.238 7.34122 18.238 10.0097C18.238 12.6783 18.2263 12.9908 18.1794 14.0457Z" />
<path d="M10.0371 4.8642C7.20074 4.8642 4.89941 7.16537 4.89941 10.0019C4.89941 12.8385 7.20074 15.1396 10.0371 15.1396C12.8737 15.1396 15.1749 12.8385 15.1749 10.0019C15.1749 7.16537 12.8737 4.8642 10.0371 4.8642ZM10.0371 13.3346C8.19702 13.3346 6.70442 11.8422 6.70442 10.0019C6.70442 8.16165 8.19702 6.66921 10.0371 6.66921C11.8774 6.66921 13.3698 8.16165 13.3698 10.0019C13.3698 11.8422 11.8774 13.3346 10.0371 13.3346Z" />
<path d="M16.5775 4.6611C16.5775 5.32346 16.0404 5.86052 15.3779 5.86052C14.7155 5.86052 14.1785 5.32346 14.1785 4.6611C14.1785 3.99858 14.7155 3.46167 15.3779 3.46167C16.0404 3.46167 16.5775 3.99858 16.5775 4.6611Z" />
</g>
</symbol>
<symbol id="twitter" width="20" height="20" viewBox="0 0 20 20"  xmlns="http://www.w3.org/2000/svg">
<g clip-path="url(#clip0_59_24)">
<path d="M20 3.79875C19.2563 4.125 18.4637 4.34125 17.6375 4.44625C18.4875 3.93875 19.1363 3.14125 19.4412 2.18C18.6488 2.6525 17.7738 2.98625 16.8412 3.1725C16.0887 2.37125 15.0162 1.875 13.8462 1.875C11.5763 1.875 9.74875 3.7175 9.74875 5.97625C9.74875 6.30125 9.77625 6.61375 9.84375 6.91125C6.435 6.745 3.41875 5.11125 1.3925 2.6225C1.03875 3.23625 0.83125 3.93875 0.83125 4.695C0.83125 6.115 1.5625 7.37375 2.6525 8.1025C1.99375 8.09 1.3475 7.89875 0.8 7.5975C0.8 7.61 0.8 7.62625 0.8 7.6425C0.8 9.635 2.22125 11.29 4.085 11.6712C3.75125 11.7625 3.3875 11.8062 3.01 11.8062C2.7475 11.8062 2.4825 11.7913 2.23375 11.7362C2.765 13.36 4.2725 14.5538 6.065 14.5925C4.67 15.6838 2.89875 16.3412 0.98125 16.3412C0.645 16.3412 0.3225 16.3263 0 16.285C1.81625 17.4563 3.96875 18.125 6.29 18.125C13.835 18.125 17.96 11.875 17.96 6.4575C17.96 6.27625 17.9538 6.10125 17.945 5.9275C18.7588 5.35 19.4425 4.62875 20 3.79875Z"/>
</g>
</symbol>
<symbol id="facebook" width="20" height="20" viewBox="0 0 20 20"  xmlns="http://www.w3.org/2000/svg">
<g clip-path="url(#clip0_59_20)">
<path d="M13.3308 3.32083H15.1566V0.140833C14.8416 0.0975 13.7583 0 12.4966 0C9.8641 0 8.06076 1.65583 8.06076 4.69917V7.5H5.15576V11.055H8.06076V20H11.6224V11.0558H14.4099L14.8524 7.50083H11.6216V5.05167C11.6224 4.02417 11.8991 3.32083 13.3308 3.32083Z" />
</g>
</symbol>
<symbol id="linkedin" width="20" height="20" viewBox="0 0 20 20"  xmlns="http://www.w3.org/2000/svg">
<g clip-path="url(#clip0_59_14)">
<path d="M19.9951 20V19.9992H20.0001V12.6642C20.0001 9.07587 19.2276 6.31171 15.0326 6.31171C13.0159 6.31171 11.6626 7.41837 11.1101 8.46754H11.0517V6.64671H7.07422V19.9992H11.2159V13.3875C11.2159 11.6467 11.5459 9.96337 13.7017 9.96337C15.8259 9.96337 15.8576 11.95 15.8576 13.4992V20H19.9951Z"/>
<path d="M0.330078 6.64746H4.47675V20H0.330078V6.64746Z" />
<path d="M2.40167 0C1.07583 0 0 1.07583 0 2.40167C0 3.7275 1.07583 4.82583 2.40167 4.82583C3.7275 4.82583 4.80333 3.7275 4.80333 2.40167C4.8025 1.07583 3.72667 0 2.40167 0V0Z"/>
</g>
</symbol>
<symbol id="map-pin" width="24" height="24" viewBox="0 0 24 24" fill="none" xmlns="http://www.w3.org/2000/svg">
<path fill-rule="evenodd" clip-rule="evenodd" d="M20 10.3636C20 16.0909 12 21 12 21C12 21 4 16.0909 4 10.3636C4 6.29681 7.58172 3 12 3C16.4183 3 20 6.29681 20 10.3636V10.3636Z" stroke="#9DA4BD" stroke-linecap="round" stroke-linejoin="round"/>
<path fill-rule="evenodd" clip-rule="evenodd" d="M12 14C13.6569 14 15 12.6569 15 11C15 9.34315 13.6569 8 12 8C10.3431 8 9 9.34315 9 11C9 12.6569 10.3431 14 12 14Z" stroke="#9DA4BD" stroke-linecap="round" stroke-linejoin="round"/>
</symbol>
<symbol id="phone" width="24" height="24" viewBox="0 0 24 24" fill="none" xmlns="http://www.w3.org/2000/svg">
<path fill-rule="evenodd" clip-rule="evenodd" d="M19.9995 16.0028V18.4163C20.0013 18.8693 19.8121 19.3021 19.4783 19.6084C19.1444 19.9147 18.6969 20.066 18.2457 20.0252C15.7702 19.7562 13.3923 18.9103 11.3031 17.5555C9.35937 16.3203 7.71141 14.6724 6.47627 12.7286C5.11669 10.6299 4.2706 8.24046 4.00654 5.75383C3.96589 5.30403 4.11616 4.85785 4.42065 4.52429C4.72514 4.19073 5.1558 4.0005 5.60744 4.00008H8.02087C8.82845 3.99213 9.51679 4.5841 9.62982 5.38378C9.73168 6.15613 9.92059 6.91447 10.1929 7.64435C10.414 8.23232 10.2726 8.89515 9.83093 9.34179L8.80925 10.3635C9.95447 12.3775 11.6221 14.0451 13.6361 15.1903L14.6578 14.1686C15.1044 13.727 15.7673 13.5856 16.3552 13.8066C17.0851 14.079 17.8435 14.2679 18.6158 14.3698C19.4248 14.4839 20.0198 15.1861 19.9995 16.0028Z" stroke="#9DA4BD" stroke-linecap="round" stroke-linejoin="round"/>
</symbol>
<symbol id="mail" width="24" height="24" viewBox="0 0 24 24" fill="none" xmlns="http://www.w3.org/2000/svg">
<path fill-rule="evenodd" clip-rule="evenodd" d="M4.8 5H19.2C20.19 5 21 5.7875 21 6.75V17.25C21 18.2125 20.19 19 19.2 19H4.8C3.81 19 3 18.2125 3 17.25V6.75C3 5.7875 3.81 5 4.8 5Z" stroke="#9DA4BD" stroke-linecap="round" stroke-linejoin="round"/>
<path d="M20 7L12 13L4 7" stroke="#9DA4BD" stroke-linecap="round" stroke-linejoin="round"/>
</symbol>

</defs>
</svg>
